<svg id="semantics" xmlns="http://www.w3.org/2000/svg"><g id="light"><g id="light/primary"><g id="primary" transform="translate(0,0)"><rect id="light/primary/primary" width="60" height="60" fill="#cca000" /><rect id="primary/400" width="65" height="65" fill="#cca000" /><text x="60" y="30" fill="black">primary: #cca000</text></g><g id="on_primary" transform="translate(0,50)"><rect id="light/primary/on_primary" width="60" height="60" fill="#ffffff" /><rect id="primary/1000" width="65" height="65" fill="#ffffff" /><text x="60" y="30" fill="black">on_primary: #ffffff</text></g><g id="primary_container" transform="translate(0,100)"><rect id="light/primary/primary_container" width="60" height="60" fill="#fef3cc" /><rect id="primary/900" width="65" height="65" fill="#fef3cc" /><text x="60" y="30" fill="black">primary_container: #fef3cc</text></g><g id="on_primary_container" transform="translate(0,150)"><rect id="light/primary/on_primary_container" width="60" height="60" fill="#332800" /><rect id="primary/100" width="65" height="65" fill="#332800" /><text x="60" y="30" fill="black">on_primary_container: #332800</text></g><g id="primary_fixed" transform="translate(0,200)"><rect id="light/primary/primary_fixed" width="60" height="60" fill="#fef3cc" /><rect id="primary/900" width="65" height="65" fill="#fef3cc" /><text x="60" y="30" fill="black">primary_fixed: #fef3cc</text></g><g id="primary_fixed_dim" transform="translate(0,250)"><rect id="light/primary/primary_fixed_dim" width="60" height="60" fill="#ffe999" /><rect id="primary/800" width="65" height="65" fill="#ffe999" /><text x="60" y="30" fill="black">primary_fixed_dim: #ffe999</text></g><g id="on_primary_fixed" transform="translate(0,300)"><rect id="light/primary/on_primary_fixed" width="60" height="60" fill="#332800" /><rect id="primary/100" width="65" height="65" fill="#332800" /><text x="60" y="30" fill="black">on_primary_fixed: #332800</text></g><g id="on_primary_fixed_variant" transform="translate(0,350)"><rect id="light/primary/on_primary_fixed_variant" width="60" height="60" fill="#997800" /><rect id="primary/300" width="65" height="65" fill="#997800" /><text x="60" y="30" fill="black">on_primary_fixed_variant: #997800</text></g><g id="inverse_primary" transform="translate(0,400)"><rect id="light/primary/inverse_primary" width="60" height="60" fill="#ffe999" /><rect id="primary/800" width="65" height="65" fill="#ffe999" /><text x="60" y="30" fill="black">inverse_primary: #ffe999</text></g></g><g id="light/secondary"><g id="secondary" transform="translate(0,450)"><rect id="light/secondary/secondary" width="60" height="60" fill="#00cc9e" /><rect id="secondary/400" width="65" height="65" fill="#00cc9e" /><text x="60" y="30" fill="black">secondary: #00cc9e</text></g><g id="on_secondary" transform="translate(0,500)"><rect id="light/secondary/on_secondary" width="60" height="60" fill="#ffffff" /><rect id="secondary/1000" width="65" height="65" fill="#ffffff" /><text x="60" y="30" fill="black">on_secondary: #ffffff</text></g><g id="secondary_container" transform="translate(0,550)"><rect id="light/secondary/secondary_container" width="60" height="60" fill="#ccfef3" /><rect id="secondary/900" width="65" height="65" fill="#ccfef3" /><text x="60" y="30" fill="black">secondary_container: #ccfef3</text></g><g id="on_secondary_container" transform="translate(0,600)"><rect id="light/secondary/on_secondary_container" width="60" height="60" fill="#003327" /><rect id="secondary/100" width="65" height="65" fill="#003327" /><text x="60" y="30" fill="black">on_secondary_container: #003327</text></g><g id="secondary_fixed" transform="translate(0,650)"><rect id="light/secondary/secondary_fixed" width="60" height="60" fill="#ccfef3" /><rect id="secondary/900" width="65" height="65" fill="#ccfef3" /><text x="60" y="30" fill="black">secondary_fixed: #ccfef3</text></g><g id="secondary_fixed_dim" transform="translate(0,700)"><rect id="light/secondary/secondary_fixed_dim" width="60" height="60" fill="#99ffe8" /><rect id="secondary/800" width="65" height="65" fill="#99ffe8" /><text x="60" y="30" fill="black">secondary_fixed_dim: #99ffe8</text></g><g id="on_secondary_fixed" transform="translate(0,750)"><rect id="light/secondary/on_secondary_fixed" width="60" height="60" fill="#003327" /><rect id="secondary/100" width="65" height="65" fill="#003327" /><text x="60" y="30" fill="black">on_secondary_fixed: #003327</text></g><g id="on_secondary_fixed_variant" transform="translate(0,800)"><rect id="light/secondary/on_secondary_fixed_variant" width="60" height="60" fill="#009976" /><rect id="secondary/300" width="65" height="65" fill="#009976" /><text x="60" y="30" fill="black">on_secondary_fixed_variant: #009976</text></g></g><g id="light/tertiary"><g id="tertiary" transform="translate(0,850)"><rect id="light/tertiary/tertiary" width="60" height="60" fill="#cc5f00" /><rect id="tertiary/400" width="65" height="65" fill="#cc5f00" /><text x="60" y="30" fill="black">tertiary: #cc5f00</text></g><g id="on_tertiary" transform="translate(0,900)"><rect id="light/tertiary/on_tertiary" width="60" height="60" fill="#ffffff" /><rect id="tertiary/1000" width="65" height="65" fill="#ffffff" /><text x="60" y="30" fill="black">on_tertiary: #ffffff</text></g><g id="tertiary_container" transform="translate(0,950)"><rect id="light/tertiary/tertiary_container" width="60" height="60" fill="#fee3cc" /><rect id="tertiary/900" width="65" height="65" fill="#fee3cc" /><text x="60" y="30" fill="black">tertiary_container: #fee3cc</text></g><g id="on_tertiary_container" transform="translate(0,1000)"><rect id="light/tertiary/on_tertiary_container" width="60" height="60" fill="#331700" /><rect id="tertiary/100" width="65" height="65" fill="#331700" /><text x="60" y="30" fill="black">on_tertiary_container: #331700</text></g><g id="tertiary_fixed" transform="translate(0,1050)"><rect id="light/tertiary/tertiary_fixed" width="60" height="60" fill="#fee3cc" /><rect id="tertiary/900" width="65" height="65" fill="#fee3cc" /><text x="60" y="30" fill="black">tertiary_fixed: #fee3cc</text></g><g id="tertiary_fixed_dim" transform="translate(0,1100)"><rect id="light/tertiary/tertiary_fixed_dim" width="60" height="60" fill="#ffc899" /><rect id="tertiary/800" width="65" height="65" fill="#ffc899" /><text x="60" y="30" fill="black">tertiary_fixed_dim: #ffc899</text></g><g id="on_tertiary_fixed" transform="translate(0,1150)"><rect id="light/tertiary/on_tertiary_fixed" width="60" height="60" fill="#331700" /><rect id="tertiary/100" width="65" height="65" fill="#331700" /><text x="60" y="30" fill="black">on_tertiary_fixed: #331700</text></g><g id="on_tertiary_fixed_variant" transform="translate(0,1200)"><rect id="light/tertiary/on_tertiary_fixed_variant" width="60" height="60" fill="#994700" /><rect id="tertiary/300" width="65" height="65" fill="#994700" /><text x="60" y="30" fill="black">on_tertiary_fixed_variant: #994700</text></g></g><g id="light/error"><g id="error" transform="translate(0,1250)"><rect id="light/error/error" width="60" height="60" fill="#af231c" /><rect id="error/400" width="65" height="65" fill="#af231c" /><text x="60" y="30" fill="black">error: #af231c</text></g><g id="on_error" transform="translate(0,1300)"><rect id="light/error/on_error" width="60" height="60" fill="#ffffff" /><rect id="error/1000" width="65" height="65" fill="#ffffff" /><text x="60" y="30" fill="black">on_error: #ffffff</text></g><g id="error_container" transform="translate(0,1350)"><rect id="light/error/error_container" width="60" height="60" fill="#f7d4d3" /><rect id="error/900" width="65" height="65" fill="#f7d4d3" /><text x="60" y="30" fill="black">error_container: #f7d4d3</text></g><g id="on_error_container" transform="translate(0,1400)"><rect id="light/error/on_error_container" width="60" height="60" fill="#2b0807" /><rect id="error/100" width="65" height="65" fill="#2b0807" /><text x="60" y="30" fill="black">on_error_container: #2b0807</text></g><g id="error_fixed" transform="translate(0,1450)"><rect id="light/error/error_fixed" width="60" height="60" fill="#f7d4d3" /><rect id="error/900" width="65" height="65" fill="#f7d4d3" /><text x="60" y="30" fill="black">error_fixed: #f7d4d3</text></g><g id="error_fixed_dim" transform="translate(0,1500)"><rect id="light/error/error_fixed_dim" width="60" height="60" fill="#f0aaa7" /><rect id="error/800" width="65" height="65" fill="#f0aaa7" /><text x="60" y="30" fill="black">error_fixed_dim: #f0aaa7</text></g><g id="on_error_fixed" transform="translate(0,1550)"><rect id="light/error/on_error_fixed" width="60" height="60" fill="#2b0807" /><rect id="error/100" width="65" height="65" fill="#2b0807" /><text x="60" y="30" fill="black">on_error_fixed: #2b0807</text></g><g id="on_error_fixed_variant" transform="translate(0,1600)"><rect id="light/error/on_error_fixed_variant" width="60" height="60" fill="#831a15" /><rect id="error/300" width="65" height="65" fill="#831a15" /><text x="60" y="30" fill="black">on_error_fixed_variant: #831a15</text></g></g><g id="light/surface"><g id="surface_dim" transform="translate(0,1650)"><rect id="light/surface/surface_dim" width="60" height="60" fill="#dddcdf" /><rect id="grey/870" width="65" height="65" fill="#dddcdf" /><text x="60" y="30" fill="black">surface_dim: #dddcdf</text></g><g id="surface" transform="translate(0,1700)"><rect id="light/surface/surface" width="60" height="60" fill="#f9f9fa" /><rect id="grey/980" width="65" height="65" fill="#f9f9fa" /><text x="60" y="30" fill="black">surface: #f9f9fa</text></g><g id="surface_bright" transform="translate(0,1750)"><rect id="light/surface/surface_bright" width="60" height="60" fill="#f9f9fa" /><rect id="grey/980" width="65" height="65" fill="#f9f9fa" /><text x="60" y="30" fill="black">surface_bright: #f9f9fa</text></g><g id="surface_container_lowest" transform="translate(0,1800)"><rect id="light/surface/surface_container_lowest" width="60" height="60" fill="#fffffe" /><rect id="grey/1000" width="65" height="65" fill="#fffffe" /><text x="60" y="30" fill="black">surface_container_lowest: #fffffe</text></g><g id="surface_container_low" transform="translate(0,1850)"><rect id="light/surface/surface_container_low" width="60" height="60" fill="#f4f4f5" /><rect id="grey/960" width="65" height="65" fill="#f4f4f5" /><text x="60" y="30" fill="black">surface_container_low: #f4f4f5</text></g><g id="surface_container" transform="translate(0,1900)"><rect id="light/surface/surface_container" width="60" height="60" fill="#efeff0" /><rect id="grey/940" width="65" height="65" fill="#efeff0" /><text x="60" y="30" fill="black">surface_container: #efeff0</text></g><g id="surface_container_high" transform="translate(0,1950)"><rect id="light/surface/surface_container_high" width="60" height="60" fill="#eae9eb" /><rect id="grey/920" width="65" height="65" fill="#eae9eb" /><text x="60" y="30" fill="black">surface_container_high: #eae9eb</text></g><g id="surface_container_highest" transform="translate(0,2000)"><rect id="light/surface/surface_container_highest" width="60" height="60" fill="#e5e4e6" /><rect id="grey/900" width="65" height="65" fill="#e5e4e6" /><text x="60" y="30" fill="black">surface_container_highest: #e5e4e6</text></g><g id="on_surface" transform="translate(0,2050)"><rect id="light/surface/on_surface" width="60" height="60" fill="#19181a" /><rect id="grey/100" width="65" height="65" fill="#19181a" /><text x="60" y="30" fill="black">on_surface: #19181a</text></g><g id="on_surface_variant" transform="translate(0,2100)"><rect id="light/surface/on_surface_variant" width="60" height="60" fill="#415057" /><rect id="grey-variant/300" width="65" height="65" fill="#415057" /><text x="60" y="30" fill="black">on_surface_variant: #415057</text></g><g id="inverse_surface" transform="translate(0,2150)"><rect id="light/surface/inverse_surface" width="60" height="60" fill="#333035" /><rect id="grey/200" width="65" height="65" fill="#333035" /><text x="60" y="30" fill="black">inverse_surface: #333035</text></g><g id="inverse_on_surface" transform="translate(0,2200)"><rect id="light/surface/inverse_on_surface" width="60" height="60" fill="#f2f1f2" /><rect id="grey/950" width="65" height="65" fill="#f2f1f2" /><text x="60" y="30" fill="black">inverse_on_surface: #f2f1f2</text></g></g><g id="light/other"><g id="outline" transform="translate(0,2250)"><rect id="light/other/outline" width="60" height="60" fill="#6d8691" /><rect id="grey-variant/500" width="65" height="65" fill="#6d8691" /><text x="60" y="30" fill="black">outline: #6d8691</text></g><g id="outline_variant" transform="translate(0,2300)"><rect id="light/other/outline_variant" width="60" height="60" fill="#c4ced3" /><rect id="grey-variant/800" width="65" height="65" fill="#c4ced3" /><text x="60" y="30" fill="black">outline_variant: #c4ced3</text></g><g id="scrim" transform="translate(0,2350)"><rect id="light/other/scrim" width="60" height="60" fill="#000000" /><rect id="grey/0" width="65" height="65" fill="#000000" /><text x="60" y="30" fill="black">scrim: #000000</text></g><g id="shadow" transform="translate(0,2400)"><rect id="light/other/shadow" width="60" height="60" fill="#000000" /><rect id="grey/0" width="65" height="65" fill="#000000" /><text x="60" y="30" fill="black">shadow: #000000</text></g><g id="background" transform="translate(0,2450)"><rect id="light/other/background" width="60" height="60" fill="#f4f4f5" /><rect id="grey/960" width="65" height="65" fill="#f4f4f5" /><text x="60" y="30" fill="black">background: #f4f4f5</text></g><g id="on_background" transform="translate(0,2500)"><rect id="light/other/on_background" width="60" height="60" fill="#0f0e0f" /><rect id="grey/60" width="65" height="65" fill="#0f0e0f" /><text x="60" y="30" fill="black">on_background: #0f0e0f</text></g></g></g><g id="dark"><g id="dark/primary"><g id="primary" transform="translate(0,2550)"><rect id="dark/primary/primary" width="60" height="60" fill="#ffe999" /><rect id="primary/800" width="65" height="65" fill="#ffe999" /><text x="60" y="30" fill="black">primary: #ffe999</text></g><g id="on_primary" transform="translate(0,2600)"><rect id="dark/primary/on_primary" width="60" height="60" fill="#665000" /><rect id="primary/200" width="65" height="65" fill="#665000" /><text x="60" y="30" fill="black">on_primary: #665000</text></g><g id="primary_container" transform="translate(0,2650)"><rect id="dark/primary/primary_container" width="60" height="60" fill="#997800" /><rect id="primary/300" width="65" height="65" fill="#997800" /><text x="60" y="30" fill="black">primary_container: #997800</text></g><g id="on_primary_container" transform="translate(0,2700)"><rect id="dark/primary/on_primary_container" width="60" height="60" fill="#fef3cc" /><rect id="primary/900" width="65" height="65" fill="#fef3cc" /><text x="60" y="30" fill="black">on_primary_container: #fef3cc</text></g><g id="primary_fixed" transform="translate(0,2750)"><rect id="dark/primary/primary_fixed" width="60" height="60" fill="#fef3cc" /><rect id="primary/900" width="65" height="65" fill="#fef3cc" /><text x="60" y="30" fill="black">primary_fixed: #fef3cc</text></g><g id="primary_fixed_dim" transform="translate(0,2800)"><rect id="dark/primary/primary_fixed_dim" width="60" height="60" fill="#ffe999" /><rect id="primary/800" width="65" height="65" fill="#ffe999" /><text x="60" y="30" fill="black">primary_fixed_dim: #ffe999</text></g><g id="on_primary_fixed" transform="translate(0,2850)"><rect id="dark/primary/on_primary_fixed" width="60" height="60" fill="#332800" /><rect id="primary/100" width="65" height="65" fill="#332800" /><text x="60" y="30" fill="black">on_primary_fixed: #332800</text></g><g id="on_primary_fixed_variant" transform="translate(0,2900)"><rect id="dark/primary/on_primary_fixed_variant" width="60" height="60" fill="#997800" /><rect id="primary/300" width="65" height="65" fill="#997800" /><text x="60" y="30" fill="black">on_primary_fixed_variant: #997800</text></g><g id="inverse_primary" transform="translate(0,2950)"><rect id="dark/primary/inverse_primary" width="60" height="60" fill="#cca000" /><rect id="primary/400" width="65" height="65" fill="#cca000" /><text x="60" y="30" fill="black">inverse_primary: #cca000</text></g></g><g id="dark/secondary"><g id="secondary" transform="translate(0,3000)"><rect id="dark/secondary/secondary" width="60" height="60" fill="#99ffe8" /><rect id="secondary/800" width="65" height="65" fill="#99ffe8" /><text x="60" y="30" fill="black">secondary: #99ffe8</text></g><g id="on_secondary" transform="translate(0,3050)"><rect id="dark/secondary/on_secondary" width="60" height="60" fill="#00664f" /><rect id="secondary/200" width="65" height="65" fill="#00664f" /><text x="60" y="30" fill="black">on_secondary: #00664f</text></g><g id="secondary_container" transform="translate(0,3100)"><rect id="dark/secondary/secondary_container" width="60" height="60" fill="#009976" /><rect id="secondary/300" width="65" height="65" fill="#009976" /><text x="60" y="30" fill="black">secondary_container: #009976</text></g><g id="on_secondary_container" transform="translate(0,3150)"><rect id="dark/secondary/on_secondary_container" width="60" height="60" fill="#ccfef3" /><rect id="secondary/900" width="65" height="65" fill="#ccfef3" /><text x="60" y="30" fill="black">on_secondary_container: #ccfef3</text></g><g id="secondary_fixed" transform="translate(0,3200)"><rect id="dark/secondary/secondary_fixed" width="60" height="60" fill="#ccfef3" /><rect id="secondary/900" width="65" height="65" fill="#ccfef3" /><text x="60" y="30" fill="black">secondary_fixed: #ccfef3</text></g><g id="secondary_fixed_dim" transform="translate(0,3250)"><rect id="dark/secondary/secondary_fixed_dim" width="60" height="60" fill="#99ffe8" /><rect id="secondary/800" width="65" height="65" fill="#99ffe8" /><text x="60" y="30" fill="black">secondary_fixed_dim: #99ffe8</text></g><g id="on_secondary_fixed" transform="translate(0,3300)"><rect id="dark/secondary/on_secondary_fixed" width="60" height="60" fill="#003327" /><rect id="secondary/100" width="65" height="65" fill="#003327" /><text x="60" y="30" fill="black">on_secondary_fixed: #003327</text></g><g id="on_secondary_fixed_variant" transform="translate(0,3350)"><rect id="dark/secondary/on_secondary_fixed_variant" width="60" height="60" fill="#009976" /><rect id="secondary/300" width="65" height="65" fill="#009976" /><text x="60" y="30" fill="black">on_secondary_fixed_variant: #009976</text></g></g><g id="dark/tertiary"><g id="tertiary" transform="translate(0,3400)"><rect id="dark/tertiary/tertiary" width="60" height="60" fill="#ffc899" /><rect id="tertiary/800" width="65" height="65" fill="#ffc899" /><text x="60" y="30" fill="black">tertiary: #ffc899</text></g><g id="on_tertiary" transform="translate(0,3450)"><rect id="dark/tertiary/on_tertiary" width="60" height="60" fill="#662f00" /><rect id="tertiary/200" width="65" height="65" fill="#662f00" /><text x="60" y="30" fill="black">on_tertiary: #662f00</text></g><g id="tertiary_container" transform="translate(0,3500)"><rect id="dark/tertiary/tertiary_container" width="60" height="60" fill="#994700" /><rect id="tertiary/300" width="65" height="65" fill="#994700" /><text x="60" y="30" fill="black">tertiary_container: #994700</text></g><g id="on_tertiary_container" transform="translate(0,3550)"><rect id="dark/tertiary/on_tertiary_container" width="60" height="60" fill="#fee3cc" /><rect id="tertiary/900" width="65" height="65" fill="#fee3cc" /><text x="60" y="30" fill="black">on_tertiary_container: #fee3cc</text></g><g id="tertiary_fixed" transform="translate(0,3600)"><rect id="dark/tertiary/tertiary_fixed" width="60" height="60" fill="#fee3cc" /><rect id="tertiary/900" width="65" height="65" fill="#fee3cc" /><text x="60" y="30" fill="black">tertiary_fixed: #fee3cc</text></g><g id="tertiary_fixed_dim" transform="translate(0,3650)"><rect id="dark/tertiary/tertiary_fixed_dim" width="60" height="60" fill="#ffc899" /><rect id="tertiary/800" width="65" height="65" fill="#ffc899" /><text x="60" y="30" fill="black">tertiary_fixed_dim: #ffc899</text></g><g id="on_tertiary_fixed" transform="translate(0,3700)"><rect id="dark/tertiary/on_tertiary_fixed" width="60" height="60" fill="#331700" /><rect id="tertiary/100" width="65" height="65" fill="#331700" /><text x="60" y="30" fill="black">on_tertiary_fixed: #331700</text></g><g id="on_tertiary_fixed_variant" transform="translate(0,3750)"><rect id="dark/tertiary/on_tertiary_fixed_variant" width="60" height="60" fill="#994700" /><rect id="tertiary/300" width="65" height="65" fill="#994700" /><text x="60" y="30" fill="black">on_tertiary_fixed_variant: #994700</text></g></g><g id="dark/error"><g id="error" transform="translate(0,3800)"><rect id="dark/error/error" width="60" height="60" fill="#ffc899" /><rect id="tertiary/800" width="65" height="65" fill="#ffc899" /><text x="60" y="30" fill="black">error: #ffc899</text></g><g id="on_error" transform="translate(0,3850)"><rect id="dark/error/on_error" width="60" height="60" fill="#662f00" /><rect id="tertiary/200" width="65" height="65" fill="#662f00" /><text x="60" y="30" fill="black">on_error: #662f00</text></g><g id="error_container" transform="translate(0,3900)"><rect id="dark/error/error_container" width="60" height="60" fill="#994700" /><rect id="tertiary/300" width="65" height="65" fill="#994700" /><text x="60" y="30" fill="black">error_container: #994700</text></g><g id="on_error_container" transform="translate(0,3950)"><rect id="dark/error/on_error_container" width="60" height="60" fill="#fee3cc" /><rect id="tertiary/900" width="65" height="65" fill="#fee3cc" /><text x="60" y="30" fill="black">on_error_container: #fee3cc</text></g><g id="error_fixed" transform="translate(0,4000)"><rect id="dark/error/error_fixed" width="60" height="60" fill="#fee3cc" /><rect id="tertiary/900" width="65" height="65" fill="#fee3cc" /><text x="60" y="30" fill="black">error_fixed: #fee3cc</text></g><g id="error_fixed_dim" transform="translate(0,4050)"><rect id="dark/error/error_fixed_dim" width="60" height="60" fill="#ffc899" /><rect id="tertiary/800" width="65" height="65" fill="#ffc899" /><text x="60" y="30" fill="black">error_fixed_dim: #ffc899</text></g><g id="on_error_fixed" transform="translate(0,4100)"><rect id="dark/error/on_error_fixed" width="60" height="60" fill="#331700" /><rect id="tertiary/100" width="65" height="65" fill="#331700" /><text x="60" y="30" fill="black">on_error_fixed: #331700</text></g><g id="on_error_fixed_variant" transform="translate(0,4150)"><rect id="dark/error/on_error_fixed_variant" width="60" height="60" fill="#994700" /><rect id="tertiary/300" width="65" height="65" fill="#994700" /><text x="60" y="30" fill="black">on_error_fixed_variant: #994700</text></g></g><g id="dark/surface"><g id="surface_dim" transform="translate(0,4200)"><rect id="dark/surface/surface_dim" width="60" height="60" fill="#0f0e0f" /><rect id="grey/60" width="65" height="65" fill="#0f0e0f" /><text x="60" y="30" fill="black">surface_dim: #0f0e0f</text></g><g id="surface" transform="translate(0,4250)"><rect id="dark/surface/surface" width="60" height="60" fill="#0f0e0f" /><rect id="grey/60" width="65" height="65" fill="#0f0e0f" /><text x="60" y="30" fill="black">surface: #0f0e0f</text></g><g id="surface_bright" transform="translate(0,4300)"><rect id="dark/surface/surface_bright" width="60" height="60" fill="#3d3a3f" /><rect id="grey/240" width="65" height="65" fill="#3d3a3f" /><text x="60" y="30" fill="black">surface_bright: #3d3a3f</text></g><g id="surface_container_lowest" transform="translate(0,4350)"><rect id="dark/surface/surface_container_lowest" width="60" height="60" fill="#0a090a" /><rect id="grey/40" width="65" height="65" fill="#0a090a" /><text x="60" y="30" fill="black">surface_container_lowest: #0a090a</text></g><g id="surface_container_low" transform="translate(0,4400)"><rect id="dark/surface/surface_container_low" width="60" height="60" fill="#19181a" /><rect id="grey/100" width="65" height="65" fill="#19181a" /><text x="60" y="30" fill="black">surface_container_low: #19181a</text></g><g id="surface_container" transform="translate(0,4450)"><rect id="dark/surface/surface_container" width="60" height="60" fill="#1e1d1f" /><rect id="grey/120" width="65" height="65" fill="#1e1d1f" /><text x="60" y="30" fill="black">surface_container: #1e1d1f</text></g><g id="surface_container_high" transform="translate(0,4500)"><rect id="dark/surface/surface_container_high" width="60" height="60" fill="#2b292d" /><rect id="grey/170" width="65" height="65" fill="#2b292d" /><text x="60" y="30" fill="black">surface_container_high: #2b292d</text></g><g id="surface_container_highest" transform="translate(0,4550)"><rect id="dark/surface/surface_container_highest" width="60" height="60" fill="#38353a" /><rect id="grey/220" width="65" height="65" fill="#38353a" /><text x="60" y="30" fill="black">surface_container_highest: #38353a</text></g><g id="on_surface" transform="translate(0,4600)"><rect id="dark/surface/on_surface" width="60" height="60" fill="#e5e4e6" /><rect id="grey/900" width="65" height="65" fill="#e5e4e6" /><text x="60" y="30" fill="black">on_surface: #e5e4e6</text></g><g id="on_surface_variant" transform="translate(0,4650)"><rect id="dark/surface/on_surface_variant" width="60" height="60" fill="#c4ced3" /><rect id="grey-variant/800" width="65" height="65" fill="#c4ced3" /><text x="60" y="30" fill="black">on_surface_variant: #c4ced3</text></g><g id="inverse_surface" transform="translate(0,4700)"><rect id="dark/surface/inverse_surface" width="60" height="60" fill="#e5e4e6" /><rect id="grey/900" width="65" height="65" fill="#e5e4e6" /><text x="60" y="30" fill="black">inverse_surface: #e5e4e6</text></g><g id="inverse_on_surface" transform="translate(0,4750)"><rect id="dark/surface/inverse_on_surface" width="60" height="60" fill="#333035" /><rect id="grey/200" width="65" height="65" fill="#333035" /><text x="60" y="30" fill="black">inverse_on_surface: #333035</text></g></g><g id="dark/other"><g id="outline" transform="translate(0,4800)"><rect id="dark/other/outline" width="60" height="60" fill="#8a9ea7" /><rect id="grey-variant/600" width="65" height="65" fill="#8a9ea7" /><text x="60" y="30" fill="black">outline: #8a9ea7</text></g><g id="outline_variant" transform="translate(0,4850)"><rect id="dark/other/outline_variant" width="60" height="60" fill="#415057" /><rect id="grey-variant/300" width="65" height="65" fill="#415057" /><text x="60" y="30" fill="black">outline_variant: #415057</text></g><g id="scrim" transform="translate(0,4900)"><rect id="dark/other/scrim" width="60" height="60" fill="#000000" /><rect id="grey/0" width="65" height="65" fill="#000000" /><text x="60" y="30" fill="black">scrim: #000000</text></g><g id="shadow" transform="translate(0,4950)"><rect id="dark/other/shadow" width="60" height="60" fill="#000000" /><rect id="grey/0" width="65" height="65" fill="#000000" /><text x="60" y="30" fill="black">shadow: #000000</text></g><g id="background" transform="translate(0,5000)"><rect id="dark/other/background" width="60" height="60" fill="#0f0e0f" /><rect id="grey/60" width="65" height="65" fill="#0f0e0f" /><text x="60" y="30" fill="black">background: #0f0e0f</text></g><g id="on_background" transform="translate(0,5050)"><rect id="dark/other/on_background" width="60" height="60" fill="#f4f4f5" /><rect id="grey/960" width="65" height="65" fill="#f4f4f5" /><text x="60" y="30" fill="black">on_background: #f4f4f5</text></g></g></g></svg>