<svg id="primitive-colors" width="2484" height="720" style="display: inline-flex; flex-direction: column; align-items: flex-start;" xmlns="http://www.w3.org/2000/svg">
<g id="grey" transform="translate(0, 0)"><svg id="grey-shades" width="2484" height="120" viewBox="0 0 2484 120" xmlns="http://www.w3.org/2000/svg">
<rect id="grey-0" width="100" height="100" fill="#000000" x="0" y="0"/>
<rect id="grey-40" width="100" height="100" fill="#0a090a" x="108" y="0"/>
<rect id="grey-60" width="100" height="100" fill="#0f0e0f" x="216" y="0"/>
<rect id="grey-100" width="100" height="100" fill="#19181a" x="324" y="0"/>
<rect id="grey-120" width="100" height="100" fill="#1e1d1f" x="432" y="0"/>
<rect id="grey-170" width="100" height="100" fill="#2b292d" x="540" y="0"/>
<rect id="grey-200" width="100" height="100" fill="#333035" x="648" y="0"/>
<rect id="grey-220" width="100" height="100" fill="#38353a" x="756" y="0"/>
<rect id="grey-240" width="100" height="100" fill="#3d3a3f" x="864" y="0"/>
<rect id="grey-300" width="100" height="100" fill="#4c494f" x="972" y="0"/>
<rect id="grey-400" width="100" height="100" fill="#66616a" x="1080" y="0"/>
<rect id="grey-500" width="100" height="100" fill="#7f7a84" x="1188" y="0"/>
<rect id="grey-600" width="100" height="100" fill="#99949d" x="1296" y="0"/>
<rect id="grey-700" width="100" height="100" fill="#b2afb5" x="1404" y="0"/>
<rect id="grey-800" width="100" height="100" fill="#ccc9ce" x="1512" y="0"/>
<rect id="grey-870" width="100" height="100" fill="#dddcdf" x="1620" y="0"/>
<rect id="grey-900" width="100" height="100" fill="#e5e4e6" x="1728" y="0"/>
<rect id="grey-920" width="100" height="100" fill="#eae9eb" x="1836" y="0"/>
<rect id="grey-940" width="100" height="100" fill="#efeff0" x="1944" y="0"/>
<rect id="grey-950" width="100" height="100" fill="#f2f1f2" x="2052" y="0"/>
<rect id="grey-960" width="100" height="100" fill="#f4f4f5" x="2160" y="0"/>
<rect id="grey-980" width="100" height="100" fill="#f9f9fa" x="2268" y="0"/>
<rect id="grey-1000" width="100" height="100" fill="#fffffe" x="2376" y="0"/>
<text x="10" y="50" fill="white" font-size="10" font-family="Arial" alignment-baseline="middle">#000000</text>
<text x="118" y="50" fill="white" font-size="10" font-family="Arial" alignment-baseline="middle">#0a090a</text>
<text x="226" y="50" fill="white" font-size="10" font-family="Arial" alignment-baseline="middle">#0f0e0f</text>
<text x="334" y="50" fill="white" font-size="10" font-family="Arial" alignment-baseline="middle">#19181a</text>
<text x="442" y="50" fill="white" font-size="10" font-family="Arial" alignment-baseline="middle">#1e1d1f</text>
<text x="550" y="50" fill="white" font-size="10" font-family="Arial" alignment-baseline="middle">#2b292d</text>
<text x="658" y="50" fill="white" font-size="10" font-family="Arial" alignment-baseline="middle">#333035</text>
<text x="766" y="50" fill="white" font-size="10" font-family="Arial" alignment-baseline="middle">#38353a</text>
<text x="874" y="50" fill="white" font-size="10" font-family="Arial" alignment-baseline="middle">#3d3a3f</text>
<text x="982" y="50" fill="white" font-size="10" font-family="Arial" alignment-baseline="middle">#4c494f</text>
<text x="1090" y="50" fill="white" font-size="10" font-family="Arial" alignment-baseline="middle">#66616a</text>
<text x="1198" y="50" fill="white" font-size="10" font-family="Arial" alignment-baseline="middle">#7f7a84</text>
<text x="1306" y="50" fill="white" font-size="10" font-family="Arial" alignment-baseline="middle">#99949d</text>
<text x="1414" y="50" fill="white" font-size="10" font-family="Arial" alignment-baseline="middle">#b2afb5</text>
<text x="1522" y="50" fill="white" font-size="10" font-family="Arial" alignment-baseline="middle">#ccc9ce</text>
<text x="1630" y="50" fill="white" font-size="10" font-family="Arial" alignment-baseline="middle">#dddcdf</text>
<text x="1738" y="50" fill="white" font-size="10" font-family="Arial" alignment-baseline="middle">#e5e4e6</text>
<text x="1846" y="50" fill="white" font-size="10" font-family="Arial" alignment-baseline="middle">#eae9eb</text>
<text x="1954" y="50" fill="white" font-size="10" font-family="Arial" alignment-baseline="middle">#efeff0</text>
<text x="2062" y="50" fill="white" font-size="10" font-family="Arial" alignment-baseline="middle">#f2f1f2</text>
<text x="2170" y="50" fill="white" font-size="10" font-family="Arial" alignment-baseline="middle">#f4f4f5</text>
<text x="2278" y="50" fill="white" font-size="10" font-family="Arial" alignment-baseline="middle">#f9f9fa</text>
<text x="2386" y="50" fill="white" font-size="10" font-family="Arial" alignment-baseline="middle">#fffffe</text>
</svg></g>
<g id="grey-variant" transform="translate(0, 120)"><svg id="grey-variant-shades" width="2484" height="120" viewBox="0 0 2484 120" xmlns="http://www.w3.org/2000/svg">
<rect id="grey-variant-0" width="100" height="100" fill="#000000" x="0" y="0"/>
<rect id="grey-variant-40" width="100" height="100" fill="#080a0b" x="108" y="0"/>
<rect id="grey-variant-60" width="100" height="100" fill="#0d1011" x="216" y="0"/>
<rect id="grey-variant-100" width="100" height="100" fill="#151a1d" x="324" y="0"/>
<rect id="grey-variant-120" width="100" height="100" fill="#1a2022" x="432" y="0"/>
<rect id="grey-variant-170" width="100" height="100" fill="#252d31" x="540" y="0"/>
<rect id="grey-variant-200" width="100" height="100" fill="#2b353a" x="648" y="0"/>
<rect id="grey-variant-220" width="100" height="100" fill="#303b40" x="756" y="0"/>
<rect id="grey-variant-240" width="100" height="100" fill="#344045" x="864" y="0"/>
<rect id="grey-variant-300" width="100" height="100" fill="#415057" x="972" y="0"/>
<rect id="grey-variant-400" width="100" height="100" fill="#576b74" x="1080" y="0"/>
<rect id="grey-variant-500" width="100" height="100" fill="#6d8691" x="1188" y="0"/>
<rect id="grey-variant-600" width="100" height="100" fill="#8a9ea7" x="1296" y="0"/>
<rect id="grey-variant-700" width="100" height="100" fill="#a7b6bd" x="1404" y="0"/>
<rect id="grey-variant-800" width="100" height="100" fill="#c4ced3" x="1512" y="0"/>
<rect id="grey-variant-870" width="100" height="100" fill="#d9dfe2" x="1620" y="0"/>
<rect id="grey-variant-900" width="100" height="100" fill="#e1e6e9" x="1728" y="0"/>
<rect id="grey-variant-920" width="100" height="100" fill="#e7ebed" x="1836" y="0"/>
<rect id="grey-variant-940" width="100" height="100" fill="#edf0f1" x="1944" y="0"/>
<rect id="grey-variant-950" width="100" height="100" fill="#f0f2f4" x="2052" y="0"/>
<rect id="grey-variant-960" width="100" height="100" fill="#f3f5f6" x="2160" y="0"/>
<rect id="grey-variant-980" width="100" height="100" fill="#f9fafa" x="2268" y="0"/>
<rect id="grey-variant-1000" width="100" height="100" fill="#ffffff" x="2376" y="0"/>
<text x="10" y="50" fill="white" font-size="10" font-family="Arial" alignment-baseline="middle">#000000</text>
<text x="118" y="50" fill="white" font-size="10" font-family="Arial" alignment-baseline="middle">#080a0b</text>
<text x="226" y="50" fill="white" font-size="10" font-family="Arial" alignment-baseline="middle">#0d1011</text>
<text x="334" y="50" fill="white" font-size="10" font-family="Arial" alignment-baseline="middle">#151a1d</text>
<text x="442" y="50" fill="white" font-size="10" font-family="Arial" alignment-baseline="middle">#1a2022</text>
<text x="550" y="50" fill="white" font-size="10" font-family="Arial" alignment-baseline="middle">#252d31</text>
<text x="658" y="50" fill="white" font-size="10" font-family="Arial" alignment-baseline="middle">#2b353a</text>
<text x="766" y="50" fill="white" font-size="10" font-family="Arial" alignment-baseline="middle">#303b40</text>
<text x="874" y="50" fill="white" font-size="10" font-family="Arial" alignment-baseline="middle">#344045</text>
<text x="982" y="50" fill="white" font-size="10" font-family="Arial" alignment-baseline="middle">#415057</text>
<text x="1090" y="50" fill="white" font-size="10" font-family="Arial" alignment-baseline="middle">#576b74</text>
<text x="1198" y="50" fill="white" font-size="10" font-family="Arial" alignment-baseline="middle">#6d8691</text>
<text x="1306" y="50" fill="white" font-size="10" font-family="Arial" alignment-baseline="middle">#8a9ea7</text>
<text x="1414" y="50" fill="white" font-size="10" font-family="Arial" alignment-baseline="middle">#a7b6bd</text>
<text x="1522" y="50" fill="white" font-size="10" font-family="Arial" alignment-baseline="middle">#c4ced3</text>
<text x="1630" y="50" fill="white" font-size="10" font-family="Arial" alignment-baseline="middle">#d9dfe2</text>
<text x="1738" y="50" fill="white" font-size="10" font-family="Arial" alignment-baseline="middle">#e1e6e9</text>
<text x="1846" y="50" fill="white" font-size="10" font-family="Arial" alignment-baseline="middle">#e7ebed</text>
<text x="1954" y="50" fill="white" font-size="10" font-family="Arial" alignment-baseline="middle">#edf0f1</text>
<text x="2062" y="50" fill="white" font-size="10" font-family="Arial" alignment-baseline="middle">#f0f2f4</text>
<text x="2170" y="50" fill="white" font-size="10" font-family="Arial" alignment-baseline="middle">#f3f5f6</text>
<text x="2278" y="50" fill="white" font-size="10" font-family="Arial" alignment-baseline="middle">#f9fafa</text>
<text x="2386" y="50" fill="white" font-size="10" font-family="Arial" alignment-baseline="middle">#ffffff</text>
</svg></g>
<g id="error" transform="translate(0, 240)"><svg id="error-shades" width="2484" height="120" viewBox="0 0 2484 120" xmlns="http://www.w3.org/2000/svg">
<rect id="error-0" width="100" height="100" fill="#000000" x="0" y="0"/>
<rect id="error-40" width="100" height="100" fill="#110302" x="108" y="0"/>
<rect id="error-60" width="100" height="100" fill="#1a0504" x="216" y="0"/>
<rect id="error-100" width="100" height="100" fill="#2b0807" x="324" y="0"/>
<rect id="error-120" width="100" height="100" fill="#340a08" x="432" y="0"/>
<rect id="error-170" width="100" height="100" fill="#4a0f0c" x="540" y="0"/>
<rect id="error-200" width="100" height="100" fill="#57110e" x="648" y="0"/>
<rect id="error-220" width="100" height="100" fill="#60130f" x="756" y="0"/>
<rect id="error-240" width="100" height="100" fill="#691511" x="864" y="0"/>
<rect id="error-300" width="100" height="100" fill="#831a15" x="972" y="0"/>
<rect id="error-400" width="100" height="100" fill="#af231c" x="1080" y="0"/>
<rect id="error-500" width="100" height="100" fill="#da2c24" x="1188" y="0"/>
<rect id="error-600" width="100" height="100" fill="#e2564f" x="1296" y="0"/>
<rect id="error-700" width="100" height="100" fill="#e9807b" x="1404" y="0"/>
<rect id="error-800" width="100" height="100" fill="#f0aaa7" x="1512" y="0"/>
<rect id="error-870" width="100" height="100" fill="#f5c8c6" x="1620" y="0"/>
<rect id="error-900" width="100" height="100" fill="#f7d4d3" x="1728" y="0"/>
<rect id="error-920" width="100" height="100" fill="#f9dddb" x="1836" y="0"/>
<rect id="error-940" width="100" height="100" fill="#fae5e4" x="1944" y="0"/>
<rect id="error-950" width="100" height="100" fill="#fbe9e9" x="2052" y="0"/>
<rect id="error-960" width="100" height="100" fill="#fceeed" x="2160" y="0"/>
<rect id="error-980" width="100" height="100" fill="#fdf6f6" x="2268" y="0"/>
<rect id="error-1000" width="100" height="100" fill="#ffffff" x="2376" y="0"/>
<text x="10" y="50" fill="white" font-size="10" font-family="Arial" alignment-baseline="middle">#000000</text>
<text x="118" y="50" fill="white" font-size="10" font-family="Arial" alignment-baseline="middle">#110302</text>
<text x="226" y="50" fill="white" font-size="10" font-family="Arial" alignment-baseline="middle">#1a0504</text>
<text x="334" y="50" fill="white" font-size="10" font-family="Arial" alignment-baseline="middle">#2b0807</text>
<text x="442" y="50" fill="white" font-size="10" font-family="Arial" alignment-baseline="middle">#340a08</text>
<text x="550" y="50" fill="white" font-size="10" font-family="Arial" alignment-baseline="middle">#4a0f0c</text>
<text x="658" y="50" fill="white" font-size="10" font-family="Arial" alignment-baseline="middle">#57110e</text>
<text x="766" y="50" fill="white" font-size="10" font-family="Arial" alignment-baseline="middle">#60130f</text>
<text x="874" y="50" fill="white" font-size="10" font-family="Arial" alignment-baseline="middle">#691511</text>
<text x="982" y="50" fill="white" font-size="10" font-family="Arial" alignment-baseline="middle">#831a15</text>
<text x="1090" y="50" fill="white" font-size="10" font-family="Arial" alignment-baseline="middle">#af231c</text>
<text x="1198" y="50" fill="white" font-size="10" font-family="Arial" alignment-baseline="middle">#da2c24</text>
<text x="1306" y="50" fill="white" font-size="10" font-family="Arial" alignment-baseline="middle">#e2564f</text>
<text x="1414" y="50" fill="white" font-size="10" font-family="Arial" alignment-baseline="middle">#e9807b</text>
<text x="1522" y="50" fill="white" font-size="10" font-family="Arial" alignment-baseline="middle">#f0aaa7</text>
<text x="1630" y="50" fill="white" font-size="10" font-family="Arial" alignment-baseline="middle">#f5c8c6</text>
<text x="1738" y="50" fill="white" font-size="10" font-family="Arial" alignment-baseline="middle">#f7d4d3</text>
<text x="1846" y="50" fill="white" font-size="10" font-family="Arial" alignment-baseline="middle">#f9dddb</text>
<text x="1954" y="50" fill="white" font-size="10" font-family="Arial" alignment-baseline="middle">#fae5e4</text>
<text x="2062" y="50" fill="white" font-size="10" font-family="Arial" alignment-baseline="middle">#fbe9e9</text>
<text x="2170" y="50" fill="white" font-size="10" font-family="Arial" alignment-baseline="middle">#fceeed</text>
<text x="2278" y="50" fill="white" font-size="10" font-family="Arial" alignment-baseline="middle">#fdf6f6</text>
<text x="2386" y="50" fill="white" font-size="10" font-family="Arial" alignment-baseline="middle">#ffffff</text>
</svg></g>
<g id="primary" transform="translate(0, 360)"><svg id="primary-shades" width="2484" height="120" viewBox="0 0 2484 120" xmlns="http://www.w3.org/2000/svg">
<rect id="primary-0" width="100" height="100" fill="#000000" x="0" y="0"/>
<rect id="primary-40" width="100" height="100" fill="#141000" x="108" y="0"/>
<rect id="primary-60" width="100" height="100" fill="#1e1800" x="216" y="0"/>
<rect id="primary-100" width="100" height="100" fill="#332800" x="324" y="0"/>
<rect id="primary-120" width="100" height="100" fill="#3d3000" x="432" y="0"/>
<rect id="primary-170" width="100" height="100" fill="#564400" x="540" y="0"/>
<rect id="primary-200" width="100" height="100" fill="#665000" x="648" y="0"/>
<rect id="primary-220" width="100" height="100" fill="#705800" x="756" y="0"/>
<rect id="primary-240" width="100" height="100" fill="#7a6000" x="864" y="0"/>
<rect id="primary-300" width="100" height="100" fill="#997800" x="972" y="0"/>
<rect id="primary-400" width="100" height="100" fill="#cca000" x="1080" y="0"/>
<rect id="primary-500" width="100" height="100" fill="#ffc800" x="1188" y="0"/>
<rect id="primary-600" width="100" height="100" fill="#ffd332" x="1296" y="0"/>
<rect id="primary-700" width="100" height="100" fill="#ffde65" x="1404" y="0"/>
<rect id="primary-800" width="100" height="100" fill="#ffe999" x="1512" y="0"/>
<rect id="primary-870" width="100" height="100" fill="#fff0bc" x="1620" y="0"/>
<rect id="primary-900" width="100" height="100" fill="#fef3cc" x="1728" y="0"/>
<rect id="primary-920" width="100" height="100" fill="#fef6d6" x="1836" y="0"/>
<rect id="primary-940" width="100" height="100" fill="#fff8e0" x="1944" y="0"/>
<rect id="primary-950" width="100" height="100" fill="#fff9e5" x="2052" y="0"/>
<rect id="primary-960" width="100" height="100" fill="#fffaea" x="2160" y="0"/>
<rect id="primary-980" width="100" height="100" fill="#fffcf4" x="2268" y="0"/>
<rect id="primary-1000" width="100" height="100" fill="#ffffff" x="2376" y="0"/>
<text x="10" y="50" fill="white" font-size="10" font-family="Arial" alignment-baseline="middle">#000000</text>
<text x="118" y="50" fill="white" font-size="10" font-family="Arial" alignment-baseline="middle">#141000</text>
<text x="226" y="50" fill="white" font-size="10" font-family="Arial" alignment-baseline="middle">#1e1800</text>
<text x="334" y="50" fill="white" font-size="10" font-family="Arial" alignment-baseline="middle">#332800</text>
<text x="442" y="50" fill="white" font-size="10" font-family="Arial" alignment-baseline="middle">#3d3000</text>
<text x="550" y="50" fill="white" font-size="10" font-family="Arial" alignment-baseline="middle">#564400</text>
<text x="658" y="50" fill="white" font-size="10" font-family="Arial" alignment-baseline="middle">#665000</text>
<text x="766" y="50" fill="white" font-size="10" font-family="Arial" alignment-baseline="middle">#705800</text>
<text x="874" y="50" fill="white" font-size="10" font-family="Arial" alignment-baseline="middle">#7a6000</text>
<text x="982" y="50" fill="white" font-size="10" font-family="Arial" alignment-baseline="middle">#997800</text>
<text x="1090" y="50" fill="white" font-size="10" font-family="Arial" alignment-baseline="middle">#cca000</text>
<text x="1198" y="50" fill="white" font-size="10" font-family="Arial" alignment-baseline="middle">#ffc800</text>
<text x="1306" y="50" fill="white" font-size="10" font-family="Arial" alignment-baseline="middle">#ffd332</text>
<text x="1414" y="50" fill="white" font-size="10" font-family="Arial" alignment-baseline="middle">#ffde65</text>
<text x="1522" y="50" fill="white" font-size="10" font-family="Arial" alignment-baseline="middle">#ffe999</text>
<text x="1630" y="50" fill="white" font-size="10" font-family="Arial" alignment-baseline="middle">#fff0bc</text>
<text x="1738" y="50" fill="white" font-size="10" font-family="Arial" alignment-baseline="middle">#fef3cc</text>
<text x="1846" y="50" fill="white" font-size="10" font-family="Arial" alignment-baseline="middle">#fef6d6</text>
<text x="1954" y="50" fill="white" font-size="10" font-family="Arial" alignment-baseline="middle">#fff8e0</text>
<text x="2062" y="50" fill="white" font-size="10" font-family="Arial" alignment-baseline="middle">#fff9e5</text>
<text x="2170" y="50" fill="white" font-size="10" font-family="Arial" alignment-baseline="middle">#fffaea</text>
<text x="2278" y="50" fill="white" font-size="10" font-family="Arial" alignment-baseline="middle">#fffcf4</text>
<text x="2386" y="50" fill="white" font-size="10" font-family="Arial" alignment-baseline="middle">#ffffff</text>
</svg></g>
<g id="secondary" transform="translate(0, 480)"><svg id="secondary-shades" width="2484" height="120" viewBox="0 0 2484 120" xmlns="http://www.w3.org/2000/svg">
<rect id="secondary-0" width="100" height="100" fill="#000000" x="0" y="0"/>
<rect id="secondary-40" width="100" height="100" fill="#00140f" x="108" y="0"/>
<rect id="secondary-60" width="100" height="100" fill="#001e17" x="216" y="0"/>
<rect id="secondary-100" width="100" height="100" fill="#003327" x="324" y="0"/>
<rect id="secondary-120" width="100" height="100" fill="#003d2f" x="432" y="0"/>
<rect id="secondary-170" width="100" height="100" fill="#005643" x="540" y="0"/>
<rect id="secondary-200" width="100" height="100" fill="#00664f" x="648" y="0"/>
<rect id="secondary-220" width="100" height="100" fill="#007057" x="756" y="0"/>
<rect id="secondary-240" width="100" height="100" fill="#007a5f" x="864" y="0"/>
<rect id="secondary-300" width="100" height="100" fill="#009976" x="972" y="0"/>
<rect id="secondary-400" width="100" height="100" fill="#00cc9e" x="1080" y="0"/>
<rect id="secondary-500" width="100" height="100" fill="#00ffc5" x="1188" y="0"/>
<rect id="secondary-600" width="100" height="100" fill="#32ffd1" x="1296" y="0"/>
<rect id="secondary-700" width="100" height="100" fill="#65ffdc" x="1404" y="0"/>
<rect id="secondary-800" width="100" height="100" fill="#99ffe8" x="1512" y="0"/>
<rect id="secondary-870" width="100" height="100" fill="#bcfff0" x="1620" y="0"/>
<rect id="secondary-900" width="100" height="100" fill="#ccfef3" x="1728" y="0"/>
<rect id="secondary-920" width="100" height="100" fill="#d6fef5" x="1836" y="0"/>
<rect id="secondary-940" width="100" height="100" fill="#e0fff8" x="1944" y="0"/>
<rect id="secondary-950" width="100" height="100" fill="#e5fff9" x="2052" y="0"/>
<rect id="secondary-960" width="100" height="100" fill="#eafffa" x="2160" y="0"/>
<rect id="secondary-980" width="100" height="100" fill="#f4fffc" x="2268" y="0"/>
<rect id="secondary-1000" width="100" height="100" fill="#ffffff" x="2376" y="0"/>
<text x="10" y="50" fill="white" font-size="10" font-family="Arial" alignment-baseline="middle">#000000</text>
<text x="118" y="50" fill="white" font-size="10" font-family="Arial" alignment-baseline="middle">#00140f</text>
<text x="226" y="50" fill="white" font-size="10" font-family="Arial" alignment-baseline="middle">#001e17</text>
<text x="334" y="50" fill="white" font-size="10" font-family="Arial" alignment-baseline="middle">#003327</text>
<text x="442" y="50" fill="white" font-size="10" font-family="Arial" alignment-baseline="middle">#003d2f</text>
<text x="550" y="50" fill="white" font-size="10" font-family="Arial" alignment-baseline="middle">#005643</text>
<text x="658" y="50" fill="white" font-size="10" font-family="Arial" alignment-baseline="middle">#00664f</text>
<text x="766" y="50" fill="white" font-size="10" font-family="Arial" alignment-baseline="middle">#007057</text>
<text x="874" y="50" fill="white" font-size="10" font-family="Arial" alignment-baseline="middle">#007a5f</text>
<text x="982" y="50" fill="white" font-size="10" font-family="Arial" alignment-baseline="middle">#009976</text>
<text x="1090" y="50" fill="white" font-size="10" font-family="Arial" alignment-baseline="middle">#00cc9e</text>
<text x="1198" y="50" fill="white" font-size="10" font-family="Arial" alignment-baseline="middle">#00ffc5</text>
<text x="1306" y="50" fill="white" font-size="10" font-family="Arial" alignment-baseline="middle">#32ffd1</text>
<text x="1414" y="50" fill="white" font-size="10" font-family="Arial" alignment-baseline="middle">#65ffdc</text>
<text x="1522" y="50" fill="white" font-size="10" font-family="Arial" alignment-baseline="middle">#99ffe8</text>
<text x="1630" y="50" fill="white" font-size="10" font-family="Arial" alignment-baseline="middle">#bcfff0</text>
<text x="1738" y="50" fill="white" font-size="10" font-family="Arial" alignment-baseline="middle">#ccfef3</text>
<text x="1846" y="50" fill="white" font-size="10" font-family="Arial" alignment-baseline="middle">#d6fef5</text>
<text x="1954" y="50" fill="white" font-size="10" font-family="Arial" alignment-baseline="middle">#e0fff8</text>
<text x="2062" y="50" fill="white" font-size="10" font-family="Arial" alignment-baseline="middle">#e5fff9</text>
<text x="2170" y="50" fill="white" font-size="10" font-family="Arial" alignment-baseline="middle">#eafffa</text>
<text x="2278" y="50" fill="white" font-size="10" font-family="Arial" alignment-baseline="middle">#f4fffc</text>
<text x="2386" y="50" fill="white" font-size="10" font-family="Arial" alignment-baseline="middle">#ffffff</text>
</svg></g>
<g id="tertiary" transform="translate(0, 600)"><svg id="tertiary-shades" width="2484" height="120" viewBox="0 0 2484 120" xmlns="http://www.w3.org/2000/svg">
<rect id="tertiary-0" width="100" height="100" fill="#000000" x="0" y="0"/>
<rect id="tertiary-40" width="100" height="100" fill="#140900" x="108" y="0"/>
<rect id="tertiary-60" width="100" height="100" fill="#1e0e00" x="216" y="0"/>
<rect id="tertiary-100" width="100" height="100" fill="#331700" x="324" y="0"/>
<rect id="tertiary-120" width="100" height="100" fill="#3d1c00" x="432" y="0"/>
<rect id="tertiary-170" width="100" height="100" fill="#562800" x="540" y="0"/>
<rect id="tertiary-200" width="100" height="100" fill="#662f00" x="648" y="0"/>
<rect id="tertiary-220" width="100" height="100" fill="#703400" x="756" y="0"/>
<rect id="tertiary-240" width="100" height="100" fill="#7a3900" x="864" y="0"/>
<rect id="tertiary-300" width="100" height="100" fill="#994700" x="972" y="0"/>
<rect id="tertiary-400" width="100" height="100" fill="#cc5f00" x="1080" y="0"/>
<rect id="tertiary-500" width="100" height="100" fill="#ff7700" x="1188" y="0"/>
<rect id="tertiary-600" width="100" height="100" fill="#ff9232" x="1296" y="0"/>
<rect id="tertiary-700" width="100" height="100" fill="#ffad65" x="1404" y="0"/>
<rect id="tertiary-800" width="100" height="100" fill="#ffc899" x="1512" y="0"/>
<rect id="tertiary-870" width="100" height="100" fill="#ffdbbc" x="1620" y="0"/>
<rect id="tertiary-900" width="100" height="100" fill="#fee3cc" x="1728" y="0"/>
<rect id="tertiary-920" width="100" height="100" fill="#fee9d6" x="1836" y="0"/>
<rect id="tertiary-940" width="100" height="100" fill="#ffeee0" x="1944" y="0"/>
<rect id="tertiary-950" width="100" height="100" fill="#fff1e5" x="2052" y="0"/>
<rect id="tertiary-960" width="100" height="100" fill="#fff4ea" x="2160" y="0"/>
<rect id="tertiary-980" width="100" height="100" fill="#fff9f4" x="2268" y="0"/>
<rect id="tertiary-1000" width="100" height="100" fill="#ffffff" x="2376" y="0"/>
<text x="10" y="50" fill="white" font-size="10" font-family="Arial" alignment-baseline="middle">#000000</text>
<text x="118" y="50" fill="white" font-size="10" font-family="Arial" alignment-baseline="middle">#140900</text>
<text x="226" y="50" fill="white" font-size="10" font-family="Arial" alignment-baseline="middle">#1e0e00</text>
<text x="334" y="50" fill="white" font-size="10" font-family="Arial" alignment-baseline="middle">#331700</text>
<text x="442" y="50" fill="white" font-size="10" font-family="Arial" alignment-baseline="middle">#3d1c00</text>
<text x="550" y="50" fill="white" font-size="10" font-family="Arial" alignment-baseline="middle">#562800</text>
<text x="658" y="50" fill="white" font-size="10" font-family="Arial" alignment-baseline="middle">#662f00</text>
<text x="766" y="50" fill="white" font-size="10" font-family="Arial" alignment-baseline="middle">#703400</text>
<text x="874" y="50" fill="white" font-size="10" font-family="Arial" alignment-baseline="middle">#7a3900</text>
<text x="982" y="50" fill="white" font-size="10" font-family="Arial" alignment-baseline="middle">#994700</text>
<text x="1090" y="50" fill="white" font-size="10" font-family="Arial" alignment-baseline="middle">#cc5f00</text>
<text x="1198" y="50" fill="white" font-size="10" font-family="Arial" alignment-baseline="middle">#ff7700</text>
<text x="1306" y="50" fill="white" font-size="10" font-family="Arial" alignment-baseline="middle">#ff9232</text>
<text x="1414" y="50" fill="white" font-size="10" font-family="Arial" alignment-baseline="middle">#ffad65</text>
<text x="1522" y="50" fill="white" font-size="10" font-family="Arial" alignment-baseline="middle">#ffc899</text>
<text x="1630" y="50" fill="white" font-size="10" font-family="Arial" alignment-baseline="middle">#ffdbbc</text>
<text x="1738" y="50" fill="white" font-size="10" font-family="Arial" alignment-baseline="middle">#fee3cc</text>
<text x="1846" y="50" fill="white" font-size="10" font-family="Arial" alignment-baseline="middle">#fee9d6</text>
<text x="1954" y="50" fill="white" font-size="10" font-family="Arial" alignment-baseline="middle">#ffeee0</text>
<text x="2062" y="50" fill="white" font-size="10" font-family="Arial" alignment-baseline="middle">#fff1e5</text>
<text x="2170" y="50" fill="white" font-size="10" font-family="Arial" alignment-baseline="middle">#fff4ea</text>
<text x="2278" y="50" fill="white" font-size="10" font-family="Arial" alignment-baseline="middle">#fff9f4</text>
<text x="2386" y="50" fill="white" font-size="10" font-family="Arial" alignment-baseline="middle">#ffffff</text>
</svg></g>
</svg>